<?xml version="1.0" encoding="UTF-8"?>
<svg id="Layer_1" xmlns="http://www.w3.org/2000/svg" version="1.1" viewBox="0 0 12.61 9">
  <!-- Generator: Adobe Illustrator 30.0.0, SVG Export Plug-In . SVG Version: 2.1.1 Build 123)  -->
  <path d="M6.31,0c-1.82,0-3.35,1.35-3.57,3.16C1.12,3.26-.1,4.65,0,6.27c.1,1.54,1.38,2.74,2.92,2.73h6.75c1.62,0,2.93-1.3,2.93-2.92,0-1.54-1.19-2.82-2.73-2.92C9.66,1.35,8.12,0,6.31,0M5.41,2.7h1.8c.25,0,.45.2.45.45s-.2.45-.45.45h-1.8c-.25,0-.45-.2-.45-.45s.2-.45.45-.45M2.71,5.85c0-.25.2-.45.45-.45h1.8c.25,0,.45.2.45.45s-.2.45-.45.45h-1.8c-.25,0-.45-.2-.45-.45M7.66,5.4h1.8c.25,0,.45.2.45.45s-.2.45-.45.45h-1.8c-.25,0-.45-.2-.45-.45s.2-.45.45-.45"/>
</svg>